<?xml version="1.0" standalone="no"?>
<!DOCTYPE svg PUBLIC "-//W3C//DTD SVG 20010904//EN"
 "http://www.w3.org/TR/2001/REC-SVG-20010904/DTD/svg10.dtd">
<svg version="1.0" xmlns="http://www.w3.org/2000/svg"
 width="512.000000pt" height="512.000000pt" viewBox="0 0 512.000000 512.000000"
 preserveAspectRatio="xMidYMid meet">

<g transform="translate(0.000000,512.000000) scale(0.100000,-0.100000)"
fill="#ed1c24" stroke="none">
<path d="M3575 5101 c-28 -13 -373 -352 -1121 -1102 -1047 -1049 -1083 -1086
-1118 -1159 -50 -103 -66 -169 -66 -280 0 -111 16 -177 66 -280 35 -73 71
-110 1118 -1159 748 -750 1093 -1089 1121 -1102 129 -60 275 36 275 180 0 27
-5 62 -10 77 -6 15 -492 512 -1080 1104 -588 592 -1074 1089 -1080 1104 -16
43 -12 128 8 163 9 17 495 513 1079 1101 585 588 1067 1082 1073 1096 5 15 10
50 10 77 0 144 -146 240 -275 180z"/>
</g>
</svg>
