<?xml version="1.0" standalone="no"?>
<!DOCTYPE svg PUBLIC "-//W3C//DTD SVG 20010904//EN"
 "http://www.w3.org/TR/2001/REC-SVG-20010904/DTD/svg10.dtd">
<svg version="1.0" xmlns="http://www.w3.org/2000/svg"
 width="256.000000pt" height="256.000000pt" viewBox="0 0 256.000000 256.000000"
 preserveAspectRatio="xMidYMid meet">

<g transform="translate(0.000000,256.000000) scale(0.100000,-0.100000)"
fill="#ed1c24" stroke="none">
<path d="M35 1896 c-31 -31 -40 -69 -26 -105 7 -15 256 -271 554 -568 604
-602 585 -586 717 -587 133 -2 116 -16 733 601 531 532 547 550 547 586 0 56
-43 97 -101 97 l-43 0 -546 -545 c-534 -534 -546 -545 -585 -545 -44 0 -23
-20 -765 717 l-376 373 -42 0 c-32 0 -49 -6 -67 -24z"/>
</g>
</svg>
