<?xml version="1.0" standalone="no"?>
<!DOCTYPE svg PUBLIC "-//W3C//DTD SVG 20010904//EN"
 "http://www.w3.org/TR/2001/REC-SVG-20010904/DTD/svg10.dtd">
<svg version="1.0" xmlns="http://www.w3.org/2000/svg"
 width="512.000000pt" height="512.000000pt" viewBox="0 0 512.000000 512.000000"
 preserveAspectRatio="xMidYMid meet">

<g transform="translate(0.000000,512.000000) scale(0.100000,-0.100000)"
fill="#ed1c24" stroke="none">
<path d="M1390 5104 c-45 -20 -77 -50 -101 -96 -21 -41 -25 -120 -9 -164 6
-14 488 -508 1073 -1096 584 -588 1070 -1084 1080 -1101 19 -35 23 -120 7
-163 -6 -15 -492 -512 -1080 -1104 -588 -592 -1074 -1089 -1080 -1104 -5 -15
-10 -50 -10 -77 0 -144 146 -240 275 -180 28 13 373 352 1121 1102 1047 1049
1083 1086 1118 1159 50 103 66 169 66 280 0 111 -16 177 -66 280 -35 73 -71
110 -1118 1159 -748 750 -1093 1089 -1121 1102 -48 22 -108 24 -155 3z"/>
</g>
</svg>
