<?xml version="1.0" standalone="no"?>
<!DOCTYPE svg PUBLIC "-//W3C//DTD SVG 20010904//EN"
 "http://www.w3.org/TR/2001/REC-SVG-20010904/DTD/svg10.dtd">
<svg version="1.0" xmlns="http://www.w3.org/2000/svg"
 width="512.000000pt" height="512.000000pt" viewBox="0 0 512.000000 512.000000"
 preserveAspectRatio="xMidYMid meet">

<g transform="translate(0.000000,512.000000) scale(0.100000,-0.100000)"
fill="#b4b5b5" stroke="none">
<path d="M2350 5114 c-563 -53 -1061 -243 -1497 -570 -164 -123 -250 -209
-259 -257 -15 -84 36 -165 117 -187 62 -17 106 -1 187 69 384 330 819 530
1322 608 162 25 518 24 685 -1 479 -72 907 -265 1279 -575 123 -103 163 -121
228 -102 79 24 128 105 114 188 -9 49 -98 137 -270 265 -384 286 -819 467
-1291 538 -136 20 -501 34 -615 24z"/>
<path d="M2247 4475 c-715 -87 -1371 -471 -1820 -1067 -92 -122 -110 -160
-104 -216 12 -112 141 -179 234 -123 17 11 71 73 119 138 101 134 300 344 419
440 314 254 685 423 1084 495 109 20 160 23 381 23 222 0 272 -3 382 -23 407
-73 790 -250 1096 -507 128 -106 305 -293 406 -428 48 -65 102 -127 119 -138
93 -56 222 11 234 123 6 55 -10 90 -104 215 -448 600 -1105 983 -1833 1068
-152 18 -463 18 -613 0z"/>
<path d="M2425 3864 c-315 -31 -525 -89 -770 -211 -400 -200 -724 -522 -929
-923 -276 -539 -320 -1143 -125 -1725 66 -197 248 -525 356 -642 68 -73 163
-79 231 -12 38 37 57 94 48 141 -3 19 -32 70 -64 114 -127 172 -206 325 -273
523 -132 397 -132 796 1 1193 93 279 229 499 439 708 161 160 278 246 456 334
155 76 242 108 390 141 777 175 1551 -207 1920 -950 83 -167 132 -303 165
-451 48 -219 64 -487 35 -597 -55 -211 -224 -348 -430 -348 -127 0 -219 38
-308 128 -98 98 -137 202 -137 368 0 294 -78 508 -253 692 -119 125 -278 215
-441 250 -104 22 -273 19 -371 -7 -256 -66 -447 -232 -571 -494 -72 -154 -88
-232 -89 -436 0 -158 3 -186 28 -284 83 -329 274 -644 563 -928 128 -126 204
-188 336 -275 158 -104 328 -173 428 -173 49 0 116 36 141 76 27 45 29 120 3
164 -26 43 -72 69 -145 81 -138 22 -325 146 -535 354 -166 164 -279 312 -363
475 -111 217 -147 359 -138 550 8 177 61 310 170 426 109 117 217 166 368 166
152 0 264 -47 374 -157 130 -130 163 -222 175 -485 9 -203 23 -266 85 -390 99
-196 284 -347 492 -401 97 -24 262 -27 357 -5 224 52 430 224 526 440 57 129
65 175 65 381 -1 263 -30 458 -107 695 -255 786 -896 1355 -1664 1474 -101 16
-362 28 -439 20z"/>
<path d="M2395 3234 c-349 -51 -617 -185 -861 -428 -220 -221 -351 -465 -420
-786 -26 -120 -27 -439 -1 -560 87 -410 352 -878 749 -1327 121 -136 176 -159
268 -110 52 27 80 75 80 137 0 60 -15 85 -110 189 -219 239 -446 574 -555 819
-95 215 -135 382 -135 560 0 204 42 378 133 556 211 412 620 654 1071 633 409
-19 772 -257 963 -633 83 -162 119 -296 132 -485 6 -87 13 -126 28 -151 60
-103 210 -106 274 -6 19 31 20 43 15 173 -14 379 -166 717 -445 995 -214 213
-420 328 -711 397 -85 20 -137 25 -275 28 -93 2 -183 1 -200 -1z"/>
<path d="M2485 1976 c-37 -16 -83 -68 -91 -103 -12 -47 5 -256 30 -363 46
-202 126 -384 245 -561 237 -352 571 -585 903 -629 103 -14 153 -3 197 41 59
58 65 149 14 209 -36 43 -67 56 -153 64 -222 21 -451 165 -635 401 -167 214
-266 467 -283 726 -10 138 -25 173 -92 207 -50 25 -91 27 -135 8z"/>
</g>
</svg>
