<?xml version="1.0" standalone="no"?>
<!DOCTYPE svg PUBLIC "-//W3C//DTD SVG 20010904//EN"
 "http://www.w3.org/TR/2001/REC-SVG-20010904/DTD/svg10.dtd">
<svg version="1.0" xmlns="http://www.w3.org/2000/svg"
 width="512.000000pt" height="512.000000pt" viewBox="0 0 512.000000 512.000000"
 preserveAspectRatio="xMidYMid meet">

<g transform="translate(0.000000,512.000000) scale(0.100000,-0.100000)"
fill="#b4b5b5" stroke="none">
<path d="M1040 5107 c-49 -16 -133 -102 -148 -153 -7 -23 -12 -66 -12 -97 l0
-55 -242 -4 -243 -3 -63 -34 c-70 -38 -100 -69 -140 -145 l-27 -51 0 -1765 0
-1765 27 -51 c40 -76 70 -107 140 -145 l63 -34 337 -3 338 -3 25 25 c30 30 33
74 6 107 l-19 24 -330 5 c-314 5 -332 6 -358 26 -15 11 -37 33 -48 48 -21 27
-21 31 -24 1417 l-2 1389 2240 0 2240 0 -2 -1389 c-3 -1386 -3 -1390 -24
-1417 -11 -15 -33 -37 -48 -48 -26 -20 -43 -21 -438 -26 l-410 -5 -19 -24
c-27 -33 -24 -77 6 -107 l25 -25 418 3 417 3 63 34 c70 38 100 69 140 145 l27
51 0 1765 0 1765 -34 63 c-38 70 -69 100 -145 140 -51 27 -52 27 -293 30
l-243 4 0 55 c0 80 -18 128 -67 183 -95 106 -236 108 -338 5 -57 -56 -75 -102
-75 -189 l0 -56 -1200 0 -1200 0 0 56 c0 81 -18 129 -67 184 -65 72 -158 97
-253 67z m135 -172 l25 -24 0 -231 0 -231 -25 -24 c-15 -16 -36 -25 -55 -25
-19 0 -40 9 -55 25 l-25 24 0 231 0 231 25 24 c15 16 36 25 55 25 19 0 40 -9
55 -25z m2880 0 l25 -24 0 -231 0 -231 -25 -24 c-15 -16 -36 -25 -55 -25 -19
0 -40 9 -55 25 l-25 24 0 231 0 231 25 24 c15 16 36 25 55 25 19 0 40 -9 55
-25z m-3175 -391 c0 -53 5 -115 12 -138 16 -55 99 -138 154 -154 94 -28 169
-8 239 63 62 61 75 101 75 229 l0 96 1200 0 1200 0 0 -96 c0 -128 13 -168 75
-229 101 -102 229 -102 330 0 62 62 75 101 75 229 l0 97 229 -3 c252 -3 255
-4 305 -72 20 -26 21 -43 24 -297 l3 -269 -2241 0 -2240 0 0 254 c0 264 4 292
43 335 43 46 68 50 300 51 l217 0 0 -96z"/>
<path fill="#ed1c24" d="M2870 3102 c-13 -11 -27 -39 -34 -72 l-12 -53 -126 2 c-345 6 -638
-100 -865 -313 -136 -128 -218 -261 -268 -432 -31 -108 -31 -119 3 -153 26
-25 52 -31 537 -115 281 -49 513 -92 518 -96 6 -5 -122 -771 -148 -887 l-5
-23 -513 0 c-598 0 -587 1 -673 -84 -112 -113 -113 -279 -1 -390 62 -62 127
-86 228 -86 38 0 69 -4 69 -8 0 -5 -13 -76 -30 -157 -16 -81 -30 -157 -30
-167 0 -30 45 -68 80 -68 59 0 72 27 110 223 l34 177 313 0 c289 0 313 -1 313
-17 0 -10 -9 -84 -21 -165 -18 -135 -19 -149 -4 -177 25 -50 99 -54 129 -8 8
12 25 98 38 192 l23 170 261 3 260 2 34 -177 c38 -196 51 -223 110 -223 35 0
80 38 80 68 0 10 -16 97 -35 192 -19 95 -35 179 -35 187 0 7 76 93 169 190
205 217 493 551 517 601 44 93 23 214 -51 287 -69 70 -163 91 -261 59 -43 -15
-85 -53 -355 -321 l-305 -304 -145 3 -145 3 76 433 c42 238 80 435 83 438 4 4
240 -35 527 -85 552 -97 543 -97 575 -48 22 34 30 206 16 308 -35 233 -140
429 -328 610 -142 136 -304 232 -496 293 l-99 31 6 53 c6 55 -3 86 -33 109
-23 18 -66 16 -91 -5z m-415 -377 c-104 -136 -186 -317 -257 -566 l-13 -45
-230 40 c-126 22 -232 41 -234 43 -9 7 42 119 87 192 91 148 259 284 436 352
90 35 207 67 249 68 27 1 26 -1 -38 -84z m476 59 c105 -54 189 -253 208 -494
8 -105 1 -324 -12 -336 -5 -5 -768 125 -776 132 -8 7 40 170 80 268 133 332
342 512 500 430z m348 -129 c276 -162 459 -438 478 -721 5 -75 3 -94 -7 -94
-14 0 -394 66 -439 76 -22 5 -23 8 -16 62 12 99 7 352 -9 444 -14 75 -47 194
-71 251 -10 24 -5 22 64 -18z m452 -1244 c21 -22 29 -39 29 -65 0 -31 -18 -57
-156 -218 -86 -101 -238 -270 -337 -376 l-181 -192 -828 2 -828 3 -32 33 c-28
28 -33 39 -33 82 0 43 5 54 33 82 l32 33 785 5 785 5 318 318 c288 287 321
317 351 317 23 0 41 -9 62 -29z"/>
</g>
</svg>
