<svg viewBox="0 0 217.04 40.75" xmlns="http://www.w3.org/2000/svg"><path d="m26.12 30.17 2.21 5.39 2.14 5.19h-8.7l2.14-5.19z" fill="#ed1c24" fill-rule="evenodd"/><path d="m16.14 2.79c1.59-3.87 7.35-3.57 8.86 0l1.15 2.71c.37-.89.74-1.79 1.11-2.71 1.59-3.87 7.35-3.56 8.87 0l16.11 38h-8.24l-12.31-28.94-1.42 3.37c3.67 8.67 7 16.88 10.68 25.53h-8.07c-2.25-5.29-4.52-10.52-6.75-15.75-2.23 5.26-4.53 10.47-6.79 15.78h-8.07c3.67-8.68 7.05-16.84 10.73-25.51l-1.45-3.42-12.28 28.9h-8.27c3.65-8.6 12.41-28.87 16.14-38z" fill="#939598" fill-rule="evenodd"/><path d="m55.76 40.75v-33.87h10.24l6.14 23.12 6.08-23.12h10.26v33.87h-6.35v-26.66l-6.73 26.66h-6.59l-6.7-26.66v26.66zm39.52 0v-33.87h25.11v5.73h-18.28v7.51h17v5.7h-17v9.18h18.89v5.71zm39.18 0v-28.14h-10.05v-5.73h26.92v5.73h-10v28.14zm48.32 0h-7.44l-3-7.69h-13.5l-2.79 7.69h-7.26l13.21-33.87h7.24l13.56 33.87zm-12.59-13.4-4.67-12.57-4.58 12.57zm16.31 13.4v-33.87h6.84v15l13.81-15h9.2l-12.75 13.19 13.4 20.68h-8.8l-9.31-15.9-5.55 5.67v10.23z" fill="#ed1c24"/></svg>