<?xml version="1.0" standalone="no"?>
<!DOCTYPE svg PUBLIC "-//W3C//DTD SVG 20010904//EN"
 "http://www.w3.org/TR/2001/REC-SVG-20010904/DTD/svg10.dtd">
<svg version="1.0" xmlns="http://www.w3.org/2000/svg"
 width="512.000000pt" height="512.000000pt" viewBox="0 0 512.000000 512.000000"
 preserveAspectRatio="xMidYMid meet">

<g transform="translate(0.000000,512.000000) scale(0.100000,-0.100000)"
fill="#b4b5b5" stroke="none">
<path d="M1935 4869 c-77 -12 -109 -24 -171 -65 -68 -45 -137 -135 -160 -207
-11 -35 -18 -106 -21 -219 l-6 -168 -451 0 c-484 0 -522 -4 -646 -53 -241 -98
-413 -305 -465 -562 -14 -72 -15 -219 -13 -1405 l3 -1325 27 -80 c92 -267 284
-448 548 -518 l85 -22 1895 0 1895 0 85 22 c264 70 456 251 548 518 l27 80 3
1325 c2 1186 1 1333 -13 1405 -52 257 -224 464 -465 562 -124 49 -162 53 -647
53 l-451 0 -4 178 c-3 156 -7 184 -27 235 -49 124 -184 227 -322 247 -77 12
-1183 11 -1254 -1z m1290 -206 c47 -25 75 -54 101 -103 15 -28 19 -65 22 -192
l4 -158 -95 0 -94 0 -6 74 c-6 88 -29 137 -89 193 -74 68 -77 68 -508 68 -432
0 -443 -2 -522 -73 -55 -50 -77 -99 -85 -187 l-6 -75 -95 0 -94 0 4 153 c3
133 7 158 27 200 13 26 39 59 58 74 67 51 81 52 733 50 598 -2 605 -2 645 -24z
m-296 -314 c39 -14 51 -35 51 -93 l0 -46 -420 0 -420 0 0 48 c0 50 11 72 45
90 28 16 700 16 744 1z m1625 -361 c165 -64 294 -196 349 -357 l22 -66 3
-1315 c2 -964 0 -1330 -8 -1370 -41 -194 -193 -356 -400 -426 -53 -18 -132
-19 -1895 -22 -1178 -2 -1870 1 -1922 7 -203 25 -369 140 -452 314 -22 45 -44
109 -50 141 -8 40 -11 475 -11 1340 0 1404 -2 1342 60 1468 57 115 144 205
252 259 121 61 0 58 2078 56 l1905 -2 69 -27z"/>
<path fill="#ed1c24" d="M1520 3559 c-213 -43 -352 -265 -296 -474 23 -86 45 -116 195 -260
80 -77 185 -178 233 -225 l87 -85 -174 -575 c-96 -316 -175 -593 -175 -614 0
-37 7 -47 142 -183 88 -88 154 -147 173 -153 36 -12 71 -2 96 26 10 11 130
224 269 474 138 250 255 459 259 463 9 9 447 -402 445 -418 -1 -5 -24 -88 -53
-183 -28 -94 -51 -184 -51 -199 0 -20 27 -54 123 -151 110 -111 127 -124 159
-125 20 0 46 6 59 15 21 13 214 346 293 505 17 35 37 58 59 69 17 9 141 77
273 151 326 182 323 176 143 359 -77 77 -131 124 -148 127 -16 3 -91 -15 -191
-45 -91 -28 -177 -53 -191 -55 -23 -4 -51 22 -232 214 -181 191 -204 220 -190
230 9 7 220 125 468 263 248 137 459 258 467 267 23 27 30 57 18 87 -5 14 -71
91 -146 171 -129 138 -159 161 -205 158 -10 -1 -276 -81 -594 -178 -317 -97
-579 -175 -583 -173 -4 2 -90 91 -191 198 -230 244 -264 276 -326 299 -63 23
-156 32 -215 20z m148 -190 c21 -7 114 -98 272 -265 136 -143 252 -257 265
-260 15 -4 234 58 621 174 l598 180 64 -62 65 -63 -34 -20 c-19 -12 -230 -130
-469 -263 -239 -133 -445 -253 -457 -266 -40 -44 -31 -85 34 -157 213 -234
538 -568 556 -572 12 -3 106 21 212 54 l190 59 37 -36 38 -36 -188 -102 c-103
-56 -208 -114 -233 -127 -40 -22 -52 -37 -94 -119 -61 -118 -184 -340 -196
-352 -6 -6 -22 3 -43 23 l-33 32 54 177 c57 185 64 229 41 259 -13 19 -514
493 -581 551 -47 40 -97 43 -130 10 -12 -13 -139 -231 -281 -486 l-260 -463
-64 64 -64 64 105 344 c268 875 258 839 247 874 -7 21 -73 90 -203 213 -268
252 -313 300 -327 350 -37 141 115 271 258 221z"/>
</g>
</svg>
