<?xml version="1.0" standalone="no"?>
<!DOCTYPE svg PUBLIC "-//W3C//DTD SVG 20010904//EN"
 "http://www.w3.org/TR/2001/REC-SVG-20010904/DTD/svg10.dtd">
<svg version="1.0" xmlns="http://www.w3.org/2000/svg"
 width="512.000000pt" height="512.000000pt" viewBox="0 0 512.000000 512.000000"
 preserveAspectRatio="xMidYMid meet">

<g transform="translate(0.000000,512.000000) scale(0.100000,-0.100000)"
fill="#b4b5b5" stroke="none">
<path d="M3040 5101 c-59 -19 -126 -57 -150 -86 -25 -30 -111 -65 -160 -65
-53 0 -123 32 -195 90 -95 77 -197 83 -265 17 -45 -44 -52 -68 -51 -182 3
-286 103 -568 264 -742 l38 -42 -78 -52 c-90 -60 -237 -175 -272 -213 -14 -14
-28 -26 -33 -26 -4 0 -8 154 -8 343 0 314 -2 345 -19 384 -28 61 -94 119 -185
163 -103 49 -172 67 -318 82 -317 32 -629 -66 -725 -230 l-28 -47 -3 -457 -3
-458 -22 -4 c-197 -35 -326 -88 -406 -166 -87 -86 -81 3 -81 -1241 l0 -1097
-52 -17 c-134 -44 -251 -137 -276 -222 -16 -55 -16 -501 0 -556 16 -54 95
-137 165 -174 250 -133 660 -136 916 -7 62 32 133 97 157 145 l19 37 83 -34
c139 -56 213 -69 393 -69 89 1 187 7 220 14 220 46 365 135 409 252 15 40 16
105 14 645 l-3 600 -29 44 c-54 82 -117 127 -238 171 -109 40 -229 59 -374 59
l-124 0 0 663 0 663 -26 52 c-62 124 -251 216 -489 239 l-80 8 -3 309 c-2 245
0 307 10 303 174 -76 273 -97 460 -97 165 0 284 21 396 68 l72 30 0 -289 0
-289 -85 -105 c-46 -58 -87 -116 -91 -129 -13 -52 28 -106 80 -106 39 1 49 9
118 95 185 233 401 429 618 559 l75 45 63 -22 c34 -12 62 -24 61 -27 0 -3 -52
-52 -115 -110 -89 -81 -115 -112 -120 -137 -11 -58 44 -111 101 -97 13 3 102
80 199 170 96 90 182 164 190 164 14 0 16 -19 16 -130 0 -146 10 -179 58 -199
33 -14 67 -4 94 26 14 16 18 43 20 163 2 86 7 145 13 147 6 2 90 -71 187 -162
97 -91 188 -169 202 -175 40 -15 85 6 102 47 21 50 2 80 -127 198 l-109 99 66
24 66 24 62 -38 c194 -118 461 -356 610 -544 302 -382 524 -891 606 -1394 96
-588 -56 -997 -447 -1196 -91 -47 -169 -74 -295 -102 -88 -20 -130 -22 -789
-27 -667 -6 -698 -7 -718 -25 -21 -19 -28 -66 -15 -101 17 -44 27 -45 694 -45
366 0 672 4 728 10 550 59 921 381 1017 882 99 518 -124 1353 -512 1918 -137
199 -314 399 -467 529 -41 36 -74 66 -72 68 1 2 38 -2 81 -8 192 -26 345 -89
453 -183 67 -59 86 -65 131 -41 32 16 41 33 41 78 0 75 -222 227 -400 273 -36
10 -67 19 -69 20 -2 2 13 23 33 47 19 24 48 70 63 103 24 50 28 72 28 144 0
74 -4 93 -32 153 -44 93 -118 169 -210 214 l-73 36 2 116 c3 106 1 119 -20
153 -69 111 -194 107 -336 -10 -110 -91 -210 -82 -354 33 -85 68 -231 92 -342
56z m181 -162 c19 -7 60 -31 91 -56 175 -135 353 -137 527 -8 41 30 78 55 82
55 5 0 7 -12 4 -27 -2 -16 -7 -64 -10 -108 -6 -96 -35 -223 -72 -313 -83 -210
-240 -363 -388 -380 l-45 -5 54 109 c89 180 129 309 110 359 -10 25 -62 47
-95 40 -37 -8 -50 -29 -90 -140 -35 -102 -82 -199 -142 -297 l-42 -68 -47 0
c-46 0 -49 2 -78 48 -47 72 -136 259 -161 337 -26 79 -64 125 -104 125 -31 0
-85 -49 -85 -78 0 -37 52 -177 111 -301 32 -68 59 -126 59 -128 0 -15 -99 9
-155 36 -194 96 -355 424 -355 724 l0 68 28 -16 c15 -9 50 -34 77 -56 29 -23
77 -48 114 -59 132 -42 255 -18 374 73 101 76 159 92 238 66z m-1493 -359
c136 -33 232 -92 232 -143 0 -47 -94 -106 -225 -143 -81 -22 -304 -30 -403
-14 -144 23 -276 81 -299 133 -23 49 27 99 142 142 150 57 378 67 553 25z
m2370 -19 c73 -38 141 -136 142 -205 0 -90 -57 -169 -158 -218 -55 -26 -82
-33 -154 -36 -124 -6 -127 -3 -75 61 85 104 156 243 187 365 8 28 15 52 17 52
2 0 20 -9 41 -19z m-2921 -1167 c146 -30 256 -87 269 -140 19 -77 -171 -163
-401 -180 -268 -19 -572 92 -526 192 22 50 155 111 288 134 86 14 289 11 370
-6z m-592 -420 c116 -51 215 -68 395 -68 179 -1 273 16 399 69 33 14 63 25 66
25 3 0 5 -242 5 -539 l0 -538 -31 -7 c-49 -9 -153 -63 -207 -105 -31 -25 -59
-59 -76 -92 l-26 -53 0 -329 c0 -310 -1 -329 -17 -322 -158 68 -323 100 -484
93 l-99 -4 0 948 c0 536 4 948 9 948 5 0 35 -11 66 -26z m1403 -1208 c117 -29
232 -99 232 -140 0 -52 -116 -123 -252 -154 -110 -25 -358 -22 -460 6 -132 36
-228 97 -228 145 0 53 130 124 278 152 98 18 340 13 430 -9z m-595 -427 c212
-79 502 -79 714 0 43 16 86 32 96 36 16 7 17 -18 17 -433 l0 -440 -27 -33
c-113 -133 -554 -168 -793 -62 -30 13 -70 38 -87 55 l-33 32 0 444 c0 419 1
444 18 437 9 -4 52 -20 95 -36z m-533 -424 c134 -31 250 -98 250 -146 0 -85
-233 -169 -470 -169 -237 0 -470 84 -470 169 0 26 59 77 120 104 49 22 153 49
235 61 61 9 262 -3 335 -19z m-640 -405 c21 -11 78 -32 127 -47 84 -26 98 -27
293 -27 195 0 209 1 293 27 49 15 106 36 127 47 22 11 42 20 45 20 3 0 5 -46
5 -103 l0 -103 -32 -31 c-82 -79 -224 -117 -438 -117 -214 0 -356 38 -437 117
l-33 31 0 103 c0 57 2 103 5 103 3 0 23 -9 45 -20z"/>
<path fill="#ed1c24" d="M3109 3227 c-27 -20 -39 -53 -39 -105 l0 -49 -44 -5 c-105 -12 -217
-95 -265 -198 -34 -74 -36 -201 -4 -272 47 -102 161 -190 265 -204 l48 -7 0
-168 c0 -167 0 -169 -22 -169 -12 0 -40 11 -64 25 -47 28 -84 90 -84 144 0 68
-87 106 -141 62 -21 -17 -24 -28 -23 -83 2 -153 132 -297 285 -315 l49 -6 0
-49 c0 -78 29 -117 88 -118 22 0 41 8 57 25 21 20 25 34 25 83 l0 59 52 6
c115 14 226 103 268 215 29 76 25 196 -8 263 -51 104 -154 181 -263 195 l-49
7 0 168 c0 165 0 169 21 169 66 0 133 -66 148 -146 17 -89 31 -104 94 -104 51
0 77 33 77 98 0 153 -133 300 -288 319 l-52 6 0 59 c0 49 -4 63 -25 83 -27 27
-79 33 -106 12z m-39 -497 c0 -187 2 -183 -63 -156 -77 32 -124 131 -98 208
19 57 91 115 144 117 16 1 17 -14 17 -169z m246 -359 c23 -10 51 -33 64 -51
30 -42 38 -122 17 -171 -18 -45 -73 -88 -121 -96 l-36 -6 0 172 c0 193 -3 188
76 152z"/>
<path fill="#ed1c24" d="M4649 1695 c-31 -17 -49 -60 -49 -119 0 -63 -27 -163 -66 -244 -84
-174 -268 -279 -529 -301 -101 -9 -128 -21 -146 -69 -13 -35 12 -86 51 -102
26 -11 51 -11 135 -1 137 16 231 42 345 99 181 89 305 246 360 457 12 44 22
117 23 163 2 80 1 85 -26 108 -32 27 -60 30 -98 9z"/>
</g>
</svg>
