<?xml version="1.0" standalone="no"?>
<!DOCTYPE svg PUBLIC "-//W3C//DTD SVG 20010904//EN"
 "http://www.w3.org/TR/2001/REC-SVG-20010904/DTD/svg10.dtd">
<svg version="1.0" xmlns="http://www.w3.org/2000/svg"
 width="512.000000pt" height="512.000000pt" viewBox="0 0 512.000000 512.000000"
 preserveAspectRatio="xMidYMid meet">

<g transform="translate(0.000000,512.000000) scale(0.100000,-0.100000)"
fill="#b4b5b5" stroke="none">
<path d="M1272 5080 c-104 -53 -161 -136 -178 -262 l-7 -47 -346 -3 -346 -3
-66 -32 c-82 -41 -150 -111 -192 -201 l-32 -67 -3 -2049 c-3 -2265 -7 -2111
61 -2225 40 -68 120 -131 200 -159 l62 -22 1555 2 1555 3 60 29 c77 38 153
114 191 191 l29 60 0 2095 0 2095 -27 58 c-35 73 -116 155 -193 193 l-60 29
-351 3 -351 3 -6 59 c-9 104 -76 202 -171 253 -41 22 -46 22 -681 25 l-641 3
-62 -31z m1329 -153 c58 -38 69 -74 69 -219 0 -127 0 -127 -30 -161 -16 -19
-42 -40 -58 -46 -20 -8 -195 -11 -634 -9 l-607 3 -36 35 c-19 19 -40 50 -45
70 -13 45 -13 195 0 239 10 37 53 88 85 101 11 5 290 9 621 9 l601 1 34 -23z
m-1497 -354 c14 -87 78 -167 170 -213 l59 -30 621 0 c392 0 635 4 658 10 94
26 188 124 211 219 l12 51 325 0 c293 0 329 -2 365 -19 51 -23 111 -89 125
-138 8 -27 10 -615 8 -2085 l-3 -2046 -30 -43 c-17 -24 -50 -57 -74 -74 l-43
-30 -1548 0 -1548 0 -43 30 c-50 35 -84 82 -99 134 -6 24 -10 731 -10 2047 0
2232 -5 2075 67 2149 71 73 77 75 444 75 l326 0 7 -37z"/>
<path fill="#ed1c24" d="M1404 3679 c-10 -4 -109 -98 -219 -208 l-199 -200 -56 53 c-31 29
-65 56 -77 60 -28 9 -69 -8 -88 -38 -29 -43 -12 -75 89 -175 136 -133 107
-145 408 157 265 265 270 271 228 324 -21 28 -56 39 -86 27z"/>
<path d="M1835 3575 c-16 -15 -25 -36 -25 -55 0 -19 9 -40 25 -55 l24 -25 629
0 c622 0 630 0 656 21 37 29 37 89 0 118 -26 21 -34 21 -656 21 l-629 0 -24
-25z"/>
<path d="M1835 3235 c-16 -15 -25 -36 -25 -55 0 -19 9 -40 25 -55 l24 -25 334
0 334 0 23 25 c33 35 31 81 -4 112 l-27 23 -330 0 -330 0 -24 -25z"/>
<path fill="#ed1c24" d="M1306 2593 c-50 -48 -144 -139 -208 -202 l-118 -116 -58 58 c-49 48
-63 57 -94 57 -28 0 -42 -6 -57 -26 -38 -48 -29 -69 76 -175 144 -147 117
-157 419 144 266 263 271 271 219 322 -46 47 -76 36 -179 -62z"/>
<path d="M1855 2589 c-49 -28 -59 -78 -24 -123 l20 -26 638 0 638 0 21 23 c27
29 28 77 3 108 l-19 24 -629 2 c-444 2 -634 -1 -648 -8z"/>
<path d="M1855 2258 c-51 -27 -61 -89 -22 -126 23 -22 28 -22 356 -22 198 0
340 4 351 10 48 26 43 110 -10 137 -33 17 -645 18 -675 1z"/>
<path fill="#ed1c24" d="M1188 1483 l-207 -207 -60 57 c-45 43 -67 57 -89 57 -39 0 -70 -27
-78 -68 -6 -30 -1 -38 92 -132 54 -56 108 -103 120 -106 12 -3 35 1 50 10 34
17 467 451 483 483 17 34 13 62 -14 88 -16 16 -35 25 -57 25 -28 0 -55 -23
-240 -207z"/>
<path d="M1870 1603 c-59 -22 -79 -92 -37 -131 l23 -22 637 0 c624 0 637 0
657 20 21 21 26 69 10 100 -20 38 -54 40 -674 39 -331 0 -608 -3 -616 -6z"/>
<path d="M1832 1247 c-30 -32 -29 -77 4 -108 l26 -24 313 -3 c346 -3 375 1
396 54 12 33 -4 79 -32 94 -10 6 -157 10 -352 10 l-334 0 -21 -23z"/>
<path d="M4194 4394 c-59 -21 -119 -76 -148 -137 l-26 -53 0 -1597 0 -1597
124 -288 c69 -158 134 -297 145 -310 23 -26 66 -29 97 -7 13 9 71 129 153 318
l131 304 0 1332 0 1332 93 -3 92 -3 2 -305 c2 -204 7 -312 14 -327 16 -30 59
-46 91 -34 58 22 58 23 58 413 l0 357 -24 28 -24 28 -150 3 -150 4 -4 176 c-3
161 -6 181 -27 225 -31 62 -101 123 -164 142 -65 19 -227 19 -283 -1z m251
-160 c55 -26 65 -61 65 -233 l0 -151 -165 0 -165 0 0 166 0 166 34 34 c33 33
36 34 116 34 54 0 93 -5 115 -16z m63 -1827 l2 -1277 -165 0 -165 0 0 1280 0
1280 163 -2 162 -3 3 -1278z m-50 -1466 c-30 -77 -112 -261 -117 -261 -3 0
-16 24 -28 53 -11 28 -37 89 -57 135 l-35 82 120 0 c66 0 119 -4 117 -9z"/>
</g>
</svg>
