<?xml version="1.0" standalone="no"?>
<!DOCTYPE svg PUBLIC "-//W3C//DTD SVG 20010904//EN"
 "http://www.w3.org/TR/2001/REC-SVG-20010904/DTD/svg10.dtd">
<svg version="1.0" xmlns="http://www.w3.org/2000/svg"
 width="512.000000pt" height="512.000000pt" viewBox="0 0 512.000000 512.000000"
 preserveAspectRatio="xMidYMid meet">

<g transform="translate(0.000000,512.000000) scale(0.100000,-0.100000)"
fill="#b4b5b5" stroke="none">
<path d="M470 5104 c-221 -47 -408 -236 -455 -459 -22 -105 -22 -4065 0 -4170
47 -225 235 -413 460 -460 56 -12 168 -15 565 -15 457 0 498 2 535 19 68 30
125 113 125 181 0 37 -24 93 -52 126 -63 72 -37 68 -604 74 l-510 5 -41 27
c-22 15 -51 44 -64 65 l-24 38 0 2025 0 2025 24 38 c13 21 42 50 64 65 l41 27
933 3 933 2 0 -327 c0 -371 6 -420 66 -543 51 -103 161 -213 264 -264 123 -60
172 -66 543 -66 l327 0 0 -85 c0 -137 46 -212 147 -241 48 -14 58 -14 106 0
32 9 64 28 84 48 58 59 63 86 63 305 0 110 -5 216 -11 238 -9 34 -100 130
-647 677 -547 547 -643 638 -677 647 -27 8 -369 11 -1085 10 -856 0 -1057 -3
-1110 -15z m2675 -1182 c-97 -1 -183 2 -206 8 -51 14 -114 77 -128 127 -6 21
-11 114 -11 208 l0 170 255 -255 255 -255 -165 -3z"/>
<path fill="#ed1c24" d="M932 3189 c-47 -14 -109 -79 -123 -131 -23 -89 12 -182 88 -229 l38
-24 1065 0 1065 0 38 24 c21 13 50 42 65 64 23 34 27 52 27 107 0 55 -4 73
-27 107 -15 22 -44 51 -65 64 l-38 24 -1050 2 c-645 1 -1063 -2 -1083 -8z"/>
<path d="M4295 2998 c-35 -9 -153 -123 -943 -912 -497 -495 -928 -933 -957
-972 -117 -155 -155 -259 -231 -637 -50 -253 -55 -287 -45 -325 22 -79 110
-151 187 -152 45 0 563 106 636 131 86 29 202 89 278 144 36 26 473 455 971
954 968 968 929 925 929 1022 0 68 -34 109 -352 425 -288 287 -317 312 -360
323 -54 13 -59 13 -113 -1z m-470 -1569 c-473 -472 -834 -826 -868 -849 -31
-21 -81 -48 -111 -59 -62 -23 -263 -67 -271 -59 -13 13 47 247 81 318 35 72
66 105 868 908 l831 832 140 -140 140 -140 -810 -811z"/>
<path fill="#ed1c24" d="M932 2389 c-47 -14 -109 -79 -123 -131 -23 -89 12 -182 88 -229 l38
-24 850 -3 c602 -2 861 0 888 8 60 18 114 73 133 136 14 49 14 59 0 107 -9 32
-28 64 -48 84 -68 66 -20 63 -950 62 -499 0 -856 -5 -876 -10z"/>
<path fill="#ed1c24" d="M932 1589 c-47 -14 -109 -80 -123 -131 -23 -89 12 -182 88 -229 l38
-24 497 0 496 0 43 30 c114 81 114 249 0 330 l-43 30 -481 2 c-287 1 -495 -2
-515 -8z"/>
</g>
</svg>
