<?xml version="1.0" standalone="no"?>
<!DOCTYPE svg PUBLIC "-//W3C//DTD SVG 20010904//EN"
 "http://www.w3.org/TR/2001/REC-SVG-20010904/DTD/svg10.dtd">
<svg version="1.0" xmlns="http://www.w3.org/2000/svg"
 width="512.000000pt" height="512.000000pt" viewBox="0 0 512.000000 512.000000"
 preserveAspectRatio="xMidYMid meet">

<g transform="translate(0.000000,512.000000) scale(0.100000,-0.100000)"
fill="#ed1c24" stroke="none">
<path d="M2100 4810 c-456 -31 -889 -200 -1254 -488 -106 -83 -301 -284 -384
-394 -285 -381 -439 -811 -458 -1283 -15 -369 63 -739 226 -1074 623 -1275
2250 -1664 3387 -810 135 102 259 222 274 266 25 77 -12 172 -81 208 -33 17
-106 20 -144 5 -14 -5 -58 -39 -98 -76 -480 -442 -1127 -612 -1763 -464 -746
174 -1319 798 -1441 1570 -21 131 -23 420 -5 545 105 724 581 1309 1261 1550
345 123 748 141 1110 50 672 -170 1210 -709 1380 -1383 16 -64 28 -118 26
-120 -3 -2 -139 88 -303 201 -164 112 -308 209 -320 215 -38 21 -126 15 -164
-11 -72 -49 -98 -141 -59 -217 25 -48 -2 -28 534 -394 279 -190 461 -308 482
-312 46 -9 93 2 132 29 32 22 640 900 668 964 33 77 -1 170 -76 210 -53 28
-101 29 -156 2 -38 -18 -64 -51 -226 -289 -101 -147 -184 -267 -186 -265 -2 1
-16 53 -33 116 -96 366 -296 708 -584 994 -234 234 -474 391 -783 512 -285
111 -643 164 -962 143z"/>
</g>
</svg>
