<?xml version="1.0" standalone="no"?>
<!DOCTYPE svg PUBLIC "-//W3C//DTD SVG 20010904//EN"
 "http://www.w3.org/TR/2001/REC-SVG-20010904/DTD/svg10.dtd">
<svg version="1.0" xmlns="http://www.w3.org/2000/svg"
 width="512.000000pt" height="512.000000pt" viewBox="0 0 512.000000 512.000000"
 preserveAspectRatio="xMidYMid meet">

<g transform="translate(0.000000,512.000000) scale(0.100000,-0.100000)"
fill="#b4b5b5" stroke="none">
<path d="M4570 4959 c-104 -20 -143 -51 -395 -301 -133 -131 -244 -238 -248
-238 -4 0 -7 12 -7 28 0 45 -27 133 -62 202 -42 82 -143 185 -224 228 -126 66
-27 62 -1661 62 -1036 0 -1498 -3 -1535 -11 -29 -6 -87 -27 -128 -46 -94 -45
-202 -149 -248 -241 -67 -134 -63 -4 -60 -2127 l3 -1920 23 -62 c64 -171 196
-299 364 -354 l73 -24 1505 0 1505 0 73 27 c40 14 95 40 122 58 70 45 163 148
199 222 63 127 61 82 61 1436 l0 1234 373 377 c733 741 745 753 772 814 57
123 56 256 -1 370 -34 66 -150 186 -213 220 -91 50 -190 66 -291 46z m151
-184 c62 -21 152 -95 186 -152 23 -40 28 -59 28 -118 0 -90 -23 -129 -142
-247 l-88 -88 -194 188 -193 187 114 112 c139 135 184 154 289 118z m-1190
-47 c76 -38 146 -109 183 -188 28 -60 31 -76 34 -190 l4 -125 -533 -540 c-292
-297 -588 -597 -656 -666 l-125 -126 -109 -374 c-60 -206 -109 -384 -109 -396
0 -32 47 -83 77 -83 14 0 193 50 397 111 l371 112 343 341 342 341 -2 -1161
-3 -1160 -38 -76 c-56 -115 -146 -183 -272 -208 -44 -8 -453 -10 -1510 -8
l-1450 3 -65 31 c-79 37 -128 79 -168 142 -66 104 -62 -39 -62 2043 0 1861 0
1888 20 1950 36 114 121 201 235 241 47 16 146 17 1545 15 l1495 -2 56 -27z
m889 -845 c-85 -87 -433 -440 -775 -786 l-620 -627 -187 187 c-104 104 -187
191 -186 195 2 3 349 358 773 787 l769 782 190 -190 190 -190 -154 -158z
m-1705 -1353 c76 -76 137 -141 135 -143 -3 -2 -84 -28 -180 -57 -245 -74 -229
-70 -225 -57 2 7 27 93 55 192 61 215 57 205 67 205 5 0 71 -63 148 -140z"/>
<path fill="#ed1c24" d="M655 4065 c-33 -32 -33 -84 -1 -122 l24 -28 1097 0 1097 0 24 28 c30
35 31 85 3 121 l-20 26 -1100 0 -1100 0 -24 -25z"/>
<path fill="#ed1c24" d="M675 3348 c-52 -28 -63 -101 -20 -143 l24 -25 821 0 822 0 29 29 c39
40 39 82 0 122 l-29 29 -814 0 c-569 -1 -819 -4 -833 -12z"/>
<path fill="#ed1c24" d="M651 2594 c-28 -36 -27 -86 3 -121 l24 -28 627 0 627 0 24 28 c32 38
32 90 -1 122 l-24 25 -630 0 -630 0 -20 -26z"/>
<path fill="#ed1c24" d="M655 1865 c-35 -34 -34 -93 1 -126 l26 -24 789 -3 c875 -3 836 -5
858 61 14 41 3 78 -31 101 -20 14 -105 16 -821 16 l-798 0 -24 -25z"/>
<path fill="#ed1c24" d="M661 1134 c-41 -34 -44 -92 -6 -129 l24 -25 1285 0 1285 0 26 23 c27
23 35 61 21 105 -18 54 41 52 -1335 52 l-1269 0 -31 -26z"/>
<path d="M4150 4103 c-18 -6 -495 -479 -703 -696 -134 -141 -151 -163 -151
-193 0 -49 36 -84 88 -84 41 -1 43 1 449 412 225 227 414 426 422 442 28 64
-41 143 -105 119z"/>
<path d="M3155 3100 c-11 -4 -59 -48 -107 -98 -77 -79 -88 -94 -88 -125 0 -52
36 -91 84 -91 33 0 46 10 132 95 52 51 97 104 100 117 9 33 -14 81 -47 97 -31
17 -45 18 -74 5z"/>
</g>
</svg>
