<?xml version="1.0" standalone="no"?>
<!DOCTYPE svg PUBLIC "-//W3C//DTD SVG 20010904//EN"
 "http://www.w3.org/TR/2001/REC-SVG-20010904/DTD/svg10.dtd">
<svg version="1.0" xmlns="http://www.w3.org/2000/svg"
 width="512.000000pt" height="512.000000pt" viewBox="0 0 512.000000 512.000000"
 preserveAspectRatio="xMidYMid meet">

<g transform="translate(0.000000,512.000000) scale(0.100000,-0.100000)"
fill="#b4b5b5" stroke="none">
<path d="M595 5106 c-155 -39 -282 -172 -315 -331 -7 -33 -10 -134 -8 -260 3
-204 3 -207 27 -226 30 -24 82 -24 112 0 24 19 24 22 29 248 5 209 7 231 27
268 25 47 74 95 123 121 34 18 105 19 1945 22 1374 2 1925 0 1962 -8 70 -15
135 -66 167 -133 l26 -53 -2 -1949 c-3 -1797 -4 -1952 -20 -1980 -24 -43 -76
-93 -122 -118 l-41 -22 -1915 -3 c-2164 -3 -1984 -9 -2070 77 -86 86 -80 -46
-80 1676 l0 1522 -26 27 c-36 35 -77 34 -115 -3 l-29 -29 0 -1529 c0 -1648 -2
-1581 51 -1685 45 -88 142 -170 241 -204 l46 -15 5 -127 c3 -85 10 -143 22
-175 23 -65 103 -150 173 -184 l57 -28 505 0 505 0 67 33 c73 36 123 86 160
161 19 39 23 66 26 178 l4 133 428 0 428 0 4 -132 c3 -113 7 -140 26 -179 37
-75 87 -125 160 -161 l67 -33 505 0 c498 0 506 0 552 22 56 26 122 84 155 135
35 57 53 140 53 253 l0 101 54 17 c125 40 234 147 275 270 l21 63 -2 1969 -3
1970 -31 65 c-39 81 -96 145 -165 187 -113 67 27 63 -2094 62 -1491 -1 -1931
-3 -1970 -13z m1365 -4703 c0 -131 -18 -172 -90 -210 l-45 -24 -466 3 -466 3
-37 29 c-58 44 -76 93 -76 209 l0 97 590 0 590 0 0 -107z m2380 10 c0 -116
-18 -165 -76 -209 l-37 -29 -466 -3 -466 -3 -45 24 c-72 38 -90 79 -90 210 l0
107 590 0 590 0 0 -97z"/>
<path d="M1020 4507 c-19 -6 -58 -34 -86 -62 -88 -85 -84 -30 -84 -1027 0
-922 0 -914 45 -932 36 -13 82 -6 103 17 l22 23 2 888 3 888 28 24 28 24 1479
0 1479 0 27 -23 c23 -20 28 -34 32 -85 4 -60 4 -62 -20 -62 -77 0 -174 -66
-213 -145 -18 -37 -20 -66 -23 -349 -3 -337 0 -360 54 -431 34 -45 98 -83 155
-93 l44 -8 0 -339 0 -339 -42 -8 c-94 -16 -169 -79 -198 -169 -14 -40 -16 -97
-13 -356 3 -294 4 -310 25 -348 40 -76 113 -128 193 -141 l43 -7 -6 -61 c-5
-49 -10 -65 -32 -83 l-26 -23 -1479 0 -1479 0 -28 24 -28 24 -5 427 c-5 412
-6 427 -25 441 -31 23 -61 27 -91 12 -54 -25 -54 -28 -52 -483 3 -463 2 -453
68 -529 18 -20 52 -47 74 -59 l41 -22 1525 0 1525 0 41 22 c48 26 101 83 121
132 8 19 17 67 20 107 l6 72 36 7 c54 10 128 54 158 93 50 66 52 85 52 417 1
304 0 311 -23 360 -37 80 -125 145 -197 145 l-29 0 0 345 0 345 28 0 c40 0
127 46 158 83 64 75 65 84 62 440 l-3 324 -30 49 c-37 59 -109 110 -169 119
l-43 7 -6 71 c-3 40 -13 91 -22 115 -21 52 -99 124 -153 140 -55 17 -3020 15
-3072 -1z m3305 -522 l25 -24 0 -291 0 -291 -25 -24 c-23 -24 -30 -25 -142
-25 -77 1 -124 5 -134 13 -36 28 -39 51 -39 332 l0 277 29 29 c29 29 31 29
146 29 110 0 117 -1 140 -25z m0 -1710 l25 -24 0 -288 c-1 -211 -4 -292 -13
-304 -24 -31 -56 -39 -162 -39 -105 0 -107 0 -136 30 l-30 29 3 292 3 291 24
19 c20 16 40 19 143 19 113 0 120 -1 143 -25z"/>
<path fill="#ed1c24" d="M1223 4156 l-28 -24 -3 -220 c-4 -260 2 -296 54 -318 29 -12 39 -12
68 0 48 20 56 57 56 254 l0 162 176 0 c177 0 205 5 231 39 21 27 15 79 -12
106 l-24 25 -245 0 c-244 0 -245 0 -273 -24z"/>
<path fill="#ed1c24" d="M2385 3825 c-162 -30 -312 -96 -443 -194 -148 -113 -265 -266 -333
-440 -56 -142 -72 -247 -66 -416 6 -172 27 -258 102 -410 139 -285 388 -479
710 -552 96 -22 316 -22 413 0 319 73 568 267 707 552 76 154 96 237 102 415
4 119 1 162 -15 240 -79 383 -371 690 -747 786 -127 33 -312 41 -430 19z m321
-170 c48 -9 90 -18 93 -20 2 -3 -4 -24 -13 -48 -23 -60 -20 -94 9 -122 50 -51
115 -26 150 58 8 20 20 37 26 37 12 0 87 -50 148 -99 47 -38 151 -163 176
-212 l16 -29 -54 -24 c-40 -17 -57 -31 -66 -55 -19 -43 1 -89 46 -107 29 -13
38 -12 85 6 29 11 54 20 55 20 1 0 9 -31 17 -69 20 -88 20 -254 1 -345 -8 -38
-16 -71 -18 -73 -2 -2 -25 6 -51 18 -74 32 -128 10 -142 -57 -7 -39 23 -77 82
-104 31 -13 43 -24 38 -32 -65 -111 -167 -222 -265 -287 -34 -23 -64 -41 -68
-41 -4 0 -18 23 -31 51 -13 28 -32 55 -41 60 -33 17 -79 10 -104 -16 -30 -29
-32 -69 -8 -120 10 -22 13 -39 7 -45 -12 -12 -174 -40 -234 -40 -60 0 -222 28
-234 40 -6 6 -3 23 7 45 24 51 22 91 -8 120 -25 26 -71 33 -104 16 -9 -5 -28
-32 -41 -60 -13 -28 -27 -51 -31 -51 -4 0 -34 18 -68 41 -98 65 -200 176 -265
287 -5 8 7 19 38 32 59 27 89 65 82 104 -14 67 -68 89 -142 57 -26 -12 -49
-20 -51 -18 -2 2 -10 35 -18 73 -19 91 -19 257 1 345 8 38 16 69 17 69 1 0 26
-9 55 -20 47 -18 56 -19 85 -6 45 18 65 64 46 107 -9 24 -26 38 -66 55 l-54
24 15 28 c26 50 106 150 154 193 55 49 156 119 171 119 6 0 18 -17 26 -37 35
-84 100 -109 150 -58 29 28 32 62 9 122 -9 24 -15 45 -12 48 10 10 167 33 229
34 37 1 106 -6 155 -14z"/>
<path fill="#ed1c24" d="M2454 3315 c-94 -20 -169 -61 -244 -131 -211 -200 -216 -519 -11
-725 102 -102 221 -153 361 -152 142 1 259 50 361 152 99 100 149 218 149 356
0 145 -53 268 -160 369 -130 122 -288 168 -456 131z m247 -191 c69 -31 140
-102 172 -172 32 -69 31 -207 -3 -277 -100 -207 -369 -262 -539 -109 -138 125
-149 341 -23 476 56 60 93 83 163 103 71 20 156 12 230 -21z"/>
</g>
</svg>
