<?xml version="1.0" standalone="no"?>
<!DOCTYPE svg PUBLIC "-//W3C//DTD SVG 20010904//EN"
 "http://www.w3.org/TR/2001/REC-SVG-20010904/DTD/svg10.dtd">
<svg version="1.0" xmlns="http://www.w3.org/2000/svg"
 width="512.000000pt" height="512.000000pt" viewBox="0 0 512.000000 512.000000"
 preserveAspectRatio="xMidYMid meet">

<g transform="translate(0.000000,512.000000) scale(0.100000,-0.100000)"
fill="#b4b5b5" stroke="none">
<path d="M2205 4865 c-37 -20 -951 -930 -971 -967 -30 -58 -20 -84 67 -174
l82 -83 -256 -3 c-252 -3 -257 -3 -279 -26 l-23 -23 -5 -766 -5 -766 -70 -29
c-38 -16 -110 -41 -160 -54 -49 -14 -103 -30 -118 -36 -58 -22 -58 -26 -55
-516 4 -429 5 -450 26 -522 52 -173 154 -332 279 -435 175 -144 480 -241 676
-214 351 47 604 214 742 490 l45 89 1143 2 1142 3 46 23 c74 36 125 87 161
160 l33 67 0 1150 0 1150 -22 48 c-31 66 -105 142 -172 174 -56 28 -57 28
-296 31 l-240 3 -575 574 c-377 376 -584 576 -602 580 -44 11 -69 -4 -161 -93
l-88 -86 -127 127 c-137 137 -162 151 -217 122z m127 -312 l78 -78 -330 -330
c-329 -330 -330 -331 -330 -373 0 -36 6 -49 41 -87 l42 -45 -84 0 -84 0 -102
102 -103 103 392 392 c216 216 395 393 398 393 2 0 40 -35 82 -77z m908 -458
l455 -455 -790 0 -791 0 -64 65 -65 65 390 390 c215 215 394 390 400 390 6 0
215 -205 465 -455z m740 -674 c69 -37 75 -58 78 -313 l3 -228 -398 0 c-453 0
-486 -4 -623 -71 -120 -60 -232 -172 -288 -290 -66 -140 -84 -258 -58 -397 42
-234 199 -416 436 -505 52 -20 80 -22 490 -27 l435 -5 3 -185 c4 -245 -1 -282
-43 -329 l-33 -36 -879 -3 -878 -2 0 430 0 430 -25 25 c-18 17 -55 33 -120 51
-206 55 -426 161 -657 316 -96 64 -115 64 -222 -8 -46 -31 -105 -69 -132 -85
l-49 -28 0 639 0 640 1463 0 c1407 0 1464 -1 1497 -19z m467 -7 c58 -42 63
-67 63 -311 l0 -223 -125 0 -125 0 0 203 c0 183 -7 268 -26 336 l-7 23 96 -3
c77 -3 101 -8 124 -25z m63 -1179 l0 -446 -647 3 -648 3 -68 32 c-138 65 -233
191 -258 340 -36 221 113 444 336 499 37 9 212 13 668 13 l617 1 0 -445z
m-3123 -169 c178 -114 370 -208 546 -266 l98 -32 -4 -382 c-4 -422 -5 -426
-73 -566 -55 -112 -171 -223 -295 -284 -112 -54 -247 -89 -344 -88 -144 1
-342 73 -467 168 -68 53 -141 147 -180 233 -54 117 -59 164 -56 561 l3 361
105 35 c126 42 369 159 500 242 52 33 96 60 97 61 1 1 33 -19 70 -43z m3123
-702 c0 -211 -1 -229 -21 -264 -33 -57 -63 -70 -169 -70 -84 0 -92 2 -85 18
17 45 25 144 25 335 l0 207 125 0 125 0 0 -226z"/>
<path d="M3391 2419 c-66 -27 -112 -84 -126 -160 -23 -121 102 -245 225 -224
159 27 224 215 116 333 -48 54 -148 78 -215 51z"/>
<path fill="#ed1c24" d="M1640 1723 c-36 -14 -63 -58 -195 -322 -77 -155 -143 -281 -146 -281
-4 0 -64 54 -135 121 -154 144 -173 156 -225 140 -45 -14 -69 -48 -69 -98 0
-42 21 -64 298 -321 113 -105 124 -112 162 -112 30 0 47 7 65 24 36 36 375
720 375 756 0 57 -79 113 -130 93z"/>
</g>
</svg>
