<?xml version="1.0" standalone="no"?>
<!DOCTYPE svg PUBLIC "-//W3C//DTD SVG 20010904//EN"
 "http://www.w3.org/TR/2001/REC-SVG-20010904/DTD/svg10.dtd">
<svg version="1.0" xmlns="http://www.w3.org/2000/svg"
 width="512.000000pt" height="512.000000pt" viewBox="0 0 512.000000 512.000000"
 preserveAspectRatio="xMidYMid meet">

<g transform="translate(0.000000,512.000000) scale(0.100000,-0.100000)"
fill="#b4b5b5" stroke="none">
<path d="M1935 4789 c-97 -11 -236 -53 -327 -99 -299 -149 -482 -413 -543
-782 l-6 -38 -93 0 c-51 0 -117 -5 -147 -10 -182 -35 -341 -191 -378 -372 -8
-38 -11 -449 -9 -1383 l3 -1330 26 -66 c57 -148 151 -257 275 -322 137 -71 28
-67 1754 -67 1712 0 1604 -4 1740 62 87 42 205 160 248 249 54 110 62 161 62
386 l0 203 40 0 c51 0 85 16 99 47 7 16 11 156 11 439 l0 415 -25 24 c-19 20
-34 25 -75 25 l-50 0 0 203 c0 145 -5 220 -15 266 -37 155 -156 306 -296 375
-100 49 -187 66 -346 66 l-133 0 0 265 c0 237 -2 270 -19 315 -30 78 -81 134
-158 172 l-67 33 -212 3 -212 3 -12 72 c-26 153 -104 344 -185 453 -218 290
-574 437 -950 393z m358 -183 c206 -61 380 -187 493 -358 92 -138 124 -243
131 -429 7 -172 -9 -254 -77 -394 -105 -218 -306 -386 -545 -456 -89 -26 -285
-36 -380 -20 -261 46 -507 236 -616 476 -56 124 -74 215 -73 375 1 127 4 156
27 233 44 143 97 236 196 340 131 139 305 232 486 260 17 3 84 4 150 2 94 -2
139 -9 208 -29z m-1228 -933 c35 -222 108 -386 244 -553 l34 -41 -264 3 c-253
3 -266 4 -307 26 -66 35 -119 88 -149 150 -39 78 -40 193 -4 267 43 86 126
154 216 176 17 4 74 7 127 8 l97 1 6 -37z m2458 4 c66 -50 67 -57 67 -342 l0
-255 -395 0 -395 0 65 83 c107 134 190 328 210 490 l7 58 203 -3 202 -3 36
-28z m-2882 -677 c23 -16 67 -40 98 -52 54 -22 71 -23 441 -28 l385 -5 60 -32
c237 -124 560 -138 820 -34 44 18 95 41 113 52 32 18 58 19 740 19 596 0 717
-2 765 -15 147 -38 249 -133 296 -273 18 -54 21 -86 21 -262 l0 -200 -208 0
c-224 0 -266 -7 -367 -57 -27 -14 -75 -52 -107 -84 -185 -190 -180 -495 13
-673 121 -112 204 -136 482 -136 l188 0 -3 -218 -3 -218 -33 -67 c-43 -86
-114 -157 -199 -199 l-68 -33 -1564 -3 c-1408 -2 -1570 -1 -1620 14 -114 32
-210 117 -264 232 l-32 67 -3 1118 c-1 614 0 1117 3 1117 3 0 24 -13 46 -30z
m3889 -1306 l0 -315 -282 3 -283 3 -57 28 c-254 125 -235 488 29 583 28 10
108 13 316 14 l277 0 0 -316z"/>
<path fill="#ed1c24" d="M2515 4179 c-11 -6 -152 -142 -312 -302 l-293 -291 -137 136 c-80 79
-149 139 -165 143 -51 13 -105 -40 -93 -93 4 -19 62 -85 184 -205 160 -160
181 -177 211 -177 32 0 61 26 377 343 299 299 343 346 343 372 -1 34 -15 56
-47 73 -27 15 -42 15 -68 1z"/>
<path d="M4095 1768 c-31 -16 -45 -39 -45 -70 0 -38 40 -78 77 -78 77 1 105
99 41 144 -26 19 -45 20 -73 4z"/>
</g>
</svg>
